<svg width="24" height="24" viewBox="0 0 24 24" fill="none" xmlns="http://www.w3.org/2000/svg">
<path d="M13.213 9.78723C12.8982 9.47232 12.5244 9.22251 12.113 9.05208C11.7017 8.88164 11.2607 8.79392 10.8155 8.79392C10.3702 8.79392 9.92927 8.88164 9.5179 9.05208C9.10654 9.22251 8.73277 9.47232 8.41797 9.78723L4.99297 13.2132C4.35724 13.8491 4.00015 14.7114 4.00024 15.6106C4.00034 16.5097 4.35761 17.372 4.99347 18.0077C5.62932 18.6435 6.49168 19.0006 7.39082 19.0005C8.28996 19.0004 9.15224 18.6431 9.78797 18.0072L10.109 17.7032M9.78797 13.2132C10.1028 13.5281 10.4765 13.778 10.8879 13.9484C11.2993 14.1188 11.7402 14.2066 12.1855 14.2066C12.6307 14.2066 13.0717 14.1188 13.483 13.9484C13.8944 13.778 14.2682 13.5281 14.583 13.2132L18.007 9.78723C18.6428 9.15151 19.0001 8.28923 19.0002 7.39009C19.0003 6.49095 18.6432 5.62859 18.0075 4.99273C17.3717 4.35688 16.5095 3.99961 15.6103 3.99951C14.7112 3.99942 13.8488 4.35651 13.213 4.99224L12.185 5.95324" stroke-width="2" stroke-linecap="round" stroke-linejoin="round"/>
</svg>
