<svg width="114" height="20" viewBox="0 0 114 20" fill="none" xmlns="http://www.w3.org/2000/svg">
<path d="M16.9479 13.7654C16.8472 13.0002 15.9723 12.7349 15.3408 12.4328C16.4507 9.86757 16.3311 7.63701 16.3311 7.63497C16.3311 3.3922 12.7728 -0.044462 8.39827 0.000434952C4.04686 0.045332 0.606012 3.61668 0.635385 7.84925C0.652169 10.3145 0.973175 10.839 1.43685 12.0165C1.49979 12.1553 1.56274 12.294 1.62778 12.4328C0.996254 12.7349 0.129748 13.09 0.0227458 13.7634C-0.101041 14.5532 0.278711 15.0817 1.20396 15.0817C1.65715 15.0817 2.09565 14.8511 2.42505 14.6185C2.96635 17.5939 0.893448 19.7755 0.685739 19.9837C0.679444 19.9898 0.685739 20 0.694131 20C8.34372 20 12.2566 17.2797 14.2582 14.392C14.5876 14.6756 15.1646 15.0817 15.7688 15.0817C16.6941 15.0817 17.0528 14.5552 16.95 13.7634L16.9479 13.7654Z" fill="#3B37FF"/>
<path d="M38.789 6.60449C38.405 6.60449 38.0568 6.83102 37.9602 7.14326L36.1328 13.2615L33.8606 7.14938C33.7326 6.80449 33.4473 6.60449 33.0759 6.60449C32.7046 6.60449 32.4486 6.79632 32.3038 7.14938L30.0442 13.2615L28.2168 7.14326C28.1203 6.83102 27.772 6.60449 27.388 6.60449C26.9202 6.60449 26.5404 6.95755 26.5404 7.39019C26.5404 7.54937 26.6054 7.71467 26.6411 7.80855L29.0812 15.4921C29.205 15.8839 29.5302 16.1084 29.975 16.1084C30.4198 16.1084 30.7093 15.8982 30.8666 15.5002L33.0864 9.65341L35.3041 15.4961C35.4446 15.89 35.7573 16.1063 36.1832 16.1063C36.6091 16.1063 36.9511 15.8839 37.0916 15.49L39.5296 7.81467C39.5632 7.72896 39.6198 7.55753 39.6198 7.39019C39.6198 6.95755 39.2464 6.60449 38.7869 6.60449L38.789 6.60449Z" fill="#0E0E0E"/>
<path d="M51.1843 6.60449C50.7018 6.60449 50.3094 6.98612 50.3094 7.45549L50.3094 10.6881L46.0902 10.6881L46.0902 7.45549C46.0902 6.98612 45.7104 6.60449 45.2426 6.60449C44.7747 6.60449 44.3677 6.98612 44.3677 7.45549L44.3677 15.2308C44.3677 15.7002 44.76 16.0818 45.2426 16.0818C45.7251 16.0818 46.0902 15.7002 46.0902 15.2308L46.0902 12.1676L50.3094 12.1676L50.3094 15.2308C50.3094 15.7002 50.7018 16.0818 51.1843 16.0818C51.6669 16.0818 52.032 15.7002 52.032 15.2308L52.032 7.45549C52.032 6.98612 51.6522 6.60449 51.1843 6.60449Z" fill="#0E0E0E"/>
<path d="M59.8368 6.57813C59.3564 6.57813 58.9493 6.97403 58.9493 7.44137L58.9493 15.2412C58.9493 15.7085 59.3564 16.1045 59.8368 16.1045C60.3173 16.1045 60.697 15.7085 60.697 15.2412L60.697 7.44137C60.697 6.97403 60.3026 6.57813 59.8368 6.57813Z" fill="#0E0E0E"/>
<path d="M71.3071 10.5656L70.6504 10.3166C69.8384 10.0125 69.4776 9.64517 69.4776 9.12273C69.4776 8.46356 70.0168 8.05541 70.8833 8.05541C71.5882 8.05541 71.9701 8.36356 72.331 8.82682C72.5156 9.05538 72.7674 9.17783 73.0548 9.17783C73.4765 9.17783 73.7954 8.87988 73.7954 8.48397C73.7954 8.25744 73.6968 8.0452 73.4576 7.74929C72.8366 6.96563 71.926 6.54932 70.8287 6.54932C69.0475 6.54932 67.755 7.6248 67.755 9.10844C67.755 10.5921 69.0559 11.2676 70.1888 11.6982L70.9126 11.9716C72.0246 12.392 72.4883 12.6818 72.4883 13.3737C72.4883 14.5512 71.0826 14.6104 70.8015 14.6104C70.0482 14.6104 69.4335 14.2879 69.0244 13.6798C68.8167 13.3675 68.5355 13.2022 68.2124 13.2022C67.7047 13.2022 67.4718 13.5879 67.4718 13.9471C67.4718 14.2798 67.6732 14.5471 67.776 14.6838C68.3719 15.5736 69.5321 16.1267 70.8015 16.1267C72.4736 16.1267 74.2507 15.1614 74.2507 13.3716C74.2507 11.937 73.1702 11.2553 71.3071 10.5615L71.3071 10.5656Z" fill="#0E0E0E"/>
<path d="M83.9837 6.64307L81.5289 6.64307C81.0002 6.64307 80.6016 7.03081 80.6016 7.54509L80.6016 15.2674C80.6016 15.7367 80.9939 16.1184 81.4765 16.1184C81.959 16.1184 82.3241 15.7367 82.3241 15.2674L82.3241 12.7123L83.9858 12.7123C86.1132 12.7123 87.542 11.4899 87.542 9.67157C87.542 7.85324 86.0796 6.64307 83.9858 6.64307L83.9837 6.64307ZM85.8593 9.67157C85.8593 10.7083 85.211 11.2348 83.9312 11.2348L82.3241 11.2348L82.3241 8.12059L83.9312 8.12059C84.6509 8.12059 85.8593 8.32262 85.8593 9.67157Z" fill="#0E0E0E"/>
<path d="M99.608 14.5348L95.6279 14.5348L95.6279 12.0471L98.2274 12.0471C98.6492 12.0471 98.9932 11.7186 98.9932 11.3145C98.9932 10.9104 98.6429 10.5941 98.2274 10.5941L95.6279 10.5941L95.6279 8.14516L99.4737 8.14516C99.9038 8.14516 100.254 7.80435 100.254 7.38599C100.254 6.96764 99.9038 6.64111 99.4737 6.64111L94.8327 6.64111C94.304 6.64111 93.9054 7.02886 93.9054 7.54313L93.9054 15.1348C93.9054 15.6491 94.304 16.0368 94.8327 16.0368L99.6059 16.0368C100.036 16.0368 100.386 15.696 100.386 15.2777C100.386 14.8593 100.036 14.5328 99.6059 14.5328L99.608 14.5348Z" fill="#0E0E0E"/>
<path d="M113.587 14.7674L111.647 12.4633C112.918 12.0164 113.671 10.9858 113.671 9.67157C113.671 7.88794 112.209 6.64307 110.115 6.64307L107.66 6.64307C107.132 6.64307 106.733 7.03081 106.733 7.54509L106.733 15.2674C106.733 15.7367 107.125 16.1184 107.608 16.1184C108.09 16.1184 108.456 15.7367 108.456 15.2674L108.456 12.7123L109.876 12.7123L112.358 15.7674C112.524 15.9633 112.757 16.0776 113 16.0776C113.445 16.0776 113.793 15.7327 113.793 15.2919C113.793 15.0959 113.72 14.9082 113.587 14.7653L113.587 14.7674ZM111.991 9.67361C111.991 10.7103 111.343 11.2368 110.063 11.2368L108.456 11.2368L108.456 8.12263L110.063 8.12263C110.782 8.12263 111.991 8.32466 111.991 9.67361Z" fill="#0E0E0E"/>
</svg>
