<svg width="114" height="20" viewBox="0 0 114 20" fill="none" xmlns="http://www.w3.org/2000/svg">
<path d="M16.9479 13.7654C16.8472 13.0002 15.9723 12.7349 15.3408 12.4328C16.4507 9.86757 16.3311 7.63701 16.3311 7.63497C16.3311 3.3922 12.7728 -0.044462 8.39827 0.000434952C4.04686 0.045332 0.606012 3.61668 0.635385 7.84925C0.652169 10.3145 0.973175 10.839 1.43685 12.0165C1.49979 12.1553 1.56274 12.294 1.62778 12.4328C0.996254 12.7349 0.129748 13.09 0.0227458 13.7634C-0.101041 14.5532 0.278711 15.0817 1.20396 15.0817C1.65715 15.0817 2.09565 14.8511 2.42505 14.6185C2.96635 17.5939 0.893448 19.7755 0.685738 19.9837C0.679444 19.9898 0.685739 20 0.694131 20C8.34372 20 12.2566 17.2797 14.2582 14.392C14.5876 14.6756 15.1646 15.0817 15.7688 15.0817C16.6941 15.0817 17.0528 14.5552 16.95 13.7634L16.9479 13.7654Z" fill="#3B37FF"/>
<path d="M38.7889 6.60449C38.4049 6.60449 38.0566 6.83102 37.9601 7.14326L36.1327 13.2615L33.8605 7.14938C33.7325 6.80449 33.4472 6.60449 33.0758 6.60449C32.7044 6.60449 32.4485 6.79632 32.3037 7.14938L30.0441 13.2615L28.2166 7.14326C28.1201 6.83102 27.7719 6.60449 27.3879 6.60449C26.92 6.60449 26.5403 6.95755 26.5403 7.39019C26.5403 7.54937 26.6053 7.71467 26.641 7.80855L29.0811 15.4921C29.2048 15.8839 29.53 16.1084 29.9748 16.1084C30.4196 16.1084 30.7092 15.8982 30.8665 15.5002L33.0863 9.65341L35.304 15.4961C35.4445 15.89 35.7571 16.1063 36.1831 16.1063C36.609 16.1063 36.9509 15.8839 37.0915 15.49L39.5295 7.81467C39.5631 7.72896 39.6197 7.55753 39.6197 7.39019C39.6197 6.95755 39.2462 6.60449 38.7868 6.60449L38.7889 6.60449Z" fill="white"/>
<path d="M51.1843 6.60449C50.7018 6.60449 50.3094 6.98612 50.3094 7.45549L50.3094 10.6881L46.0902 10.6881L46.0902 7.45549C46.0902 6.98612 45.7104 6.60449 45.2426 6.60449C44.7747 6.60449 44.3677 6.98612 44.3677 7.45549L44.3677 15.2308C44.3677 15.7002 44.76 16.0818 45.2426 16.0818C45.7251 16.0818 46.0902 15.7002 46.0902 15.2308L46.0902 12.1676L50.3094 12.1676L50.3094 15.2308C50.3094 15.7002 50.7018 16.0818 51.1843 16.0818C51.6669 16.0818 52.032 15.7002 52.032 15.2308L52.032 7.45549C52.032 6.98612 51.6522 6.60449 51.1843 6.60449Z" fill="white"/>
<path d="M59.8367 6.57813C59.3562 6.57813 58.9492 6.97403 58.9492 7.44137L58.9492 15.2412C58.9492 15.7085 59.3562 16.1045 59.8367 16.1045C60.3172 16.1045 60.6969 15.7085 60.6969 15.2412L60.6969 7.44137C60.6969 6.97403 60.3025 6.57813 59.8367 6.57813Z" fill="white"/>
<path d="M71.307 10.5656L70.6503 10.3166C69.8383 10.0125 69.4774 9.64517 69.4774 9.12273C69.4774 8.46356 70.0167 8.05541 70.8832 8.05541C71.5881 8.05541 71.97 8.36356 72.3308 8.82682C72.5155 9.05538 72.7672 9.17783 73.0547 9.17783C73.4764 9.17783 73.7953 8.87988 73.7953 8.48397C73.7953 8.25744 73.6967 8.0452 73.4575 7.74929C72.8365 6.96563 71.9259 6.54932 70.8286 6.54932C69.0473 6.54932 67.7549 7.6248 67.7549 9.10845C67.7549 10.5921 69.0557 11.2676 70.1887 11.6982L70.9125 11.9716C72.0245 12.392 72.4882 12.6818 72.4882 13.3737C72.4882 14.5512 71.0825 14.6104 70.8013 14.6104C70.0481 14.6104 69.4334 14.2879 69.0243 13.6798C68.8165 13.3675 68.5354 13.2022 68.2123 13.2022C67.7046 13.2022 67.4717 13.5879 67.4717 13.9471C67.4717 14.2798 67.6731 14.5471 67.7759 14.6838C68.3718 15.5736 69.532 16.1267 70.8013 16.1267C72.4735 16.1267 74.2506 15.1614 74.2506 13.3716C74.2506 11.937 73.1701 11.2553 71.307 10.5615L71.307 10.5656Z" fill="white"/>
<path d="M83.9837 6.64307L81.5289 6.64307C81.0002 6.64307 80.6016 7.03081 80.6016 7.54509L80.6016 15.2674C80.6016 15.7367 80.9939 16.1184 81.4765 16.1184C81.959 16.1184 82.3241 15.7367 82.3241 15.2674L82.3241 12.7123L83.9858 12.7123C86.1132 12.7123 87.542 11.4899 87.542 9.67157C87.542 7.85324 86.0796 6.64307 83.9858 6.64307L83.9837 6.64307ZM85.8593 9.67157C85.8593 10.7083 85.211 11.2348 83.9312 11.2348L82.3241 11.2348L82.3241 8.12059L83.9312 8.12059C84.6509 8.12059 85.8593 8.32262 85.8593 9.67157Z" fill="white"/>
<path d="M99.6079 14.5348L95.6278 14.5348L95.6278 12.0471L98.2273 12.0471C98.649 12.0471 98.9931 11.7186 98.9931 11.3145C98.9931 10.9104 98.6427 10.5941 98.2273 10.5941L95.6278 10.5941L95.6278 8.14516L99.4736 8.14516C99.9037 8.14516 100.254 7.80435 100.254 7.38599C100.254 6.96764 99.9037 6.64111 99.4736 6.64111L94.8326 6.64111C94.3039 6.64111 93.9053 7.02886 93.9053 7.54313L93.9053 15.1348C93.9053 15.6491 94.3039 16.0368 94.8326 16.0368L99.6058 16.0368C100.036 16.0368 100.386 15.696 100.386 15.2777C100.386 14.8593 100.036 14.5328 99.6058 14.5328L99.6079 14.5348Z" fill="white"/>
<path d="M113.587 14.7674L111.647 12.4633C112.918 12.0164 113.671 10.9858 113.671 9.67157C113.671 7.88794 112.209 6.64307 110.115 6.64307L107.66 6.64307C107.132 6.64307 106.733 7.03081 106.733 7.54509L106.733 15.2674C106.733 15.7367 107.125 16.1184 107.608 16.1184C108.09 16.1184 108.455 15.7367 108.455 15.2674L108.455 12.7123L109.876 12.7123L112.358 15.7674C112.524 15.9633 112.756 16.0776 113 16.0776C113.445 16.0776 113.793 15.7327 113.793 15.2919C113.793 15.0959 113.72 14.9082 113.587 14.7653L113.587 14.7674ZM111.991 9.67361C111.991 10.7103 111.342 11.2368 110.063 11.2368L108.455 11.2368L108.455 8.12263L110.063 8.12263C110.782 8.12263 111.991 8.32466 111.991 9.67361Z" fill="white"/>
</svg>
